<?xml version="1.0" encoding="UTF-8" standalone="no"?>
<!-- Created with Inkscape (http://www.inkscape.org/) -->

<svg
   width="264.5834mm"
   height="29.456856mm"
   viewBox="0 0 264.5834 29.456856"
   version="1.1"
   id="svg1"
   inkscape:version="1.3.2 (091e20e, 2023-11-25, custom)"
   sodipodi:docname="American Standard logo 2017.svg"
   xmlns:inkscape="http://www.inkscape.org/namespaces/inkscape"
   xmlns:sodipodi="http://sodipodi.sourceforge.net/DTD/sodipodi-0.dtd"
   xmlns="http://www.w3.org/2000/svg"
   xmlns:svg="http://www.w3.org/2000/svg">
  <sodipodi:namedview
     id="namedview1"
     pagecolor="#ffffff"
     bordercolor="#000000"
     borderopacity="0.25"
     inkscape:showpageshadow="2"
     inkscape:pageopacity="0.0"
     inkscape:pagecheckerboard="0"
     inkscape:deskcolor="#d1d1d1"
     inkscape:document-units="mm"
     inkscape:zoom="0.75455247"
     inkscape:cx="343.24982"
     inkscape:cy="82.830555"
     inkscape:window-width="1920"
     inkscape:window-height="1094"
     inkscape:window-x="-11"
     inkscape:window-y="-11"
     inkscape:window-maximized="1"
     inkscape:current-layer="layer1" />
  <defs
     id="defs1" />
  <g
     inkscape:label="Layer 1"
     inkscape:groupmode="layer"
     id="layer1"
     transform="translate(-71.966663,-182.82709)">
    <path
       inkscape:connector-curvature="0"
       id="path3951"
       style="fill:#000000;fill-opacity:1;fill-rule:nonzero;stroke:none;stroke-width:1.2933"
       d="m 221.72352,212.03116 c 2.6293,-0.4268 5.1202,-1.47566 6.98384,-3.19317 1.18337,-1.09542 1.98392,-2.41846 2.31244,-3.83078 0.0762,-0.33251 0.13051,-0.67895 0.16277,-1.02814 0.2405,-2.71725 -1.51188,-5.11375 -3.20739,-7.43136 -0.18771,-0.25625 -0.3738,-0.50566 -0.55226,-0.75656 -0.88719,-1.23381 -1.7964,-2.50256 -2.27878,-3.94457 -0.45137,-1.35153 -0.39576,-2.7832 0.46558,-3.97305 0.89236,-1.22993 2.30984,-1.86493 3.78033,-2.16367 1.00102,-0.2042 2.25679,-0.28082 3.07418,0.43454 0.3633,0.31931 0.5432,0.78889 0.50954,1.32432 0,0.9894 -0.62466,1.94514 -1.09153,2.77931 -0.15654,0.28082 -0.38798,0.57425 -0.41775,0.89885 -0.0293,0.36477 0.64149,0.49407 1.28166,0.49407 3.09748,0 4.97663,-2.34089 5.17324,-4.54338 0.1888,-2.12492 -1.55716,-4.27048 -5.88842,-4.27048 -2.52712,0 -5.08658,0.59621 -7.27485,1.84036 -2.53614,1.44204 -4.56406,3.83462 -4.82402,6.75233 -0.23279,2.61764 1.33342,5.0038 2.8207,7.03428 0.27532,0.37504 0.57293,0.75528 0.87428,1.13941 1.25838,1.60629 2.55814,3.26818 2.79611,5.19261 0.1877,1.52999 -0.5535,2.9177 -1.98261,3.71305 -0.8536,0.47465 -1.92702,0.72687 -3.10266,0.72687 -0.32334,0 -0.65571,-0.0183 -0.98418,-0.0568 -1.80286,-0.20677 -3.45185,-0.94152 -4.52399,-2.01494 -1.51834,-1.52222 -1.84297,-3.66914 -0.8458,-5.60778 0.20677,-0.40092 0.46559,-0.7734 0.69318,-1.08508 0.12171,-0.16938 0.25992,-0.31932 0.39318,-0.46431 0.13308,-0.14224 0.25736,-0.27679 0.35451,-0.41643 0.12941,-0.18513 0.17451,-0.34021 0.12538,-0.41514 -0.0506,-0.0726 -0.22766,-0.14628 -0.52249,-0.14628 -0.19283,0 -0.40092,0.033 -0.58459,0.0891 -0.732,0.23279 -1.50022,0.6428 -2.16238,1.15363 -2.56463,1.98008 -3.71566,5.9091 -1.43299,9.00399 1.70068,2.30338 4.4826,3.04444 7.09118,3.01727 0.97645,-0.011 1.92959,-0.11365 2.78448,-0.25222 m 78.57465,-10.92196 c -0.2119,0.74106 -0.55871,1.46404 -0.84323,2.13654 -0.50955,1.20537 -1.09931,2.40167 -1.89209,3.44797 -0.62078,0.82123 -1.50928,1.73818 -2.62024,1.73818 -0.6596,0 -0.96608,-0.61432 -0.96608,-1.57911 0,-1.32176 0.40737,-2.66163 0.88201,-3.88122 0.45782,-1.17431 1.03981,-2.32666 1.8184,-3.32119 0.64277,-0.81739 1.93605,-2.12104 3.08063,-1.46921 0.43069,0.24562 0.64926,0.75271 0.71132,1.24547 0.0726,0.56127 -0.011,1.12903 -0.17083,1.68257 m -16.25035,-0.90661 c -0.0425,0.28448 -0.0983,0.56647 -0.16278,0.84455 -0.33104,1.38511 -0.9428,2.69913 -1.62439,3.95362 -0.59361,1.08768 -1.26871,2.17276 -2.26456,2.91253 -0.34791,0.25846 -0.75011,0.47593 -1.18337,0.49016 -0.94283,0.0293 -1.12518,-0.82127 -1.12518,-1.58301 0,-1.76924 0.66344,-3.59669 1.43427,-5.16547 0.58459,-1.18854 1.3321,-2.40296 2.40684,-3.21125 0.754,-0.56776 1.98392,-0.75532 2.42883,0.29109 0.19394,0.45785 0.16314,0.97773 0.0906,1.46789 m -33.07884,0.90661 c -0.2119,0.74106 -0.55871,1.46404 -0.84451,2.13654 -0.50826,1.20537 -1.09802,2.40167 -1.88953,3.44797 -0.62337,0.82123 -1.50927,1.73818 -2.62024,1.73818 -0.65827,0 -0.96608,-0.61432 -0.96608,-1.57911 0,-1.32176 0.40738,-2.66163 0.88334,-3.88122 0.45653,-1.17431 1.0372,-2.32666 1.81708,-3.32119 0.64149,-0.81739 1.93737,-2.12104 3.07934,-1.46921 0.43069,0.24562 0.64794,0.75271 0.71261,1.24547 0.0726,0.56127 -0.011,1.12903 -0.17194,1.68257 m 65.85116,-5.32322 c -0.52638,0 -1.27392,0.26395 -2.23872,0.9234 -0.82383,0.55743 -1.57651,1.09802 -2.2775,1.64122 0.28192,-0.81089 0.59104,-1.6645 0.9454,-2.60862 0.26249,-0.65956 -0.30905,-1.00875 -1.14458,-1.00875 -1.18336,0 -3.20607,0.70095 -3.55527,1.9322 -0.30245,1.05274 -0.55225,2.1236 -0.83421,3.1854 -0.24966,0.94412 -0.50566,1.88952 -0.76562,2.83104 -0.24049,0.87428 -0.38669,1.74984 -0.7915,2.56851 -0.52897,1.06569 -1.61405,2.65514 -2.95777,2.65514 -0.30649,0 -0.39447,-0.26249 -0.39447,-0.70227 0,-1.8882 2.24388,-8.72334 2.55168,-9.69071 0.17598,-0.56908 -0.088,-0.92212 -0.65827,-0.92212 -0.26506,0 -0.79539,0.13454 -1.10451,0.22106 -0.0183,-0.80055 -0.2185,-1.57523 -0.9622,-1.99169 -0.37507,-0.2097 -0.80316,-0.30502 -1.22735,-0.37247 -0.58199,-0.088 -1.17043,-0.12685 -1.75759,-0.11255 -1.24675,0.033 -2.39778,0.39058 -3.46347,1.03335 -1.01656,0.61304 -1.90374,1.42265 -2.67846,2.31889 -0.8264,0.95446 -1.52995,2.01758 -2.11711,3.13499 -0.47076,0.89496 -0.87168,1.83131 -1.18336,2.79482 -0.29219,0.89624 -0.5652,1.81837 -1.05407,2.63447 -0.40997,0.68416 -1.31527,1.74981 -2.22449,1.62179 -0.38537,-0.0557 -0.45521,-0.29732 -0.45521,-0.657 0,-2.15337 2.8556,-9.04926 7.64211,-22.40133 0.26506,-0.65828 -0.35047,-1.00875 -1.22864,-1.00875 -1.2752,0 -3.1634,0.65827 -3.55787,1.93091 l -3.33802,10.32314 c -0.54965,-1.40326 -2.1456,-1.90503 -3.53459,-1.67612 -1.87919,0.31161 -3.53976,1.37866 -4.85247,2.7237 -1.38771,1.42393 -2.36288,3.14272 -3.12594,4.96497 -0.33764,0.80701 -0.60266,1.6244 -0.851,2.45986 -0.20676,0.69453 -0.43325,1.3942 -0.79667,2.02663 -0.43454,0.75528 -1.10576,1.34504 -2.02014,1.34504 -0.26396,0 -0.43843,-0.2185 -0.43843,-0.65831 0,-1.84553 2.32927,-7.3356 2.32927,-10.40981 0,-1.2726 -0.39707,-2.15077 -1.53777,-2.15077 -3.55915,0 -7.37959,5.88454 -10.10196,9.9701 0.87813,-2.06542 3.38197,-8.25904 3.38197,-9.22383 0,-0.52638 -0.52765,-0.74627 -1.22992,-0.74627 -0.89111,0 -1.93737,0.22766 -2.67069,0.75921 -0.70612,0.51082 -1.10964,1.3476 -1.41616,2.14171 -1.00747,2.61247 -1.39805,5.45641 -2.6642,7.9538 -0.27275,0.53932 -0.59104,1.06437 -1.02173,1.4886 -0.42676,0.42032 -1.96193,1.40968 -1.96193,0.17451 0,-1.8882 2.24389,-8.72335 2.55169,-9.69071 0.17597,-0.56908 -0.0891,-0.92212 -0.65828,-0.92212 -0.26395,0 -0.79539,0.13454 -1.10319,0.22106 -0.022,-0.80056 -0.21849,-1.57523 -0.96351,-1.9917 -0.37508,-0.20969 -0.80316,-0.30501 -1.22736,-0.37247 -0.5807,-0.088 -1.17043,-0.12684 -1.7589,-0.11255 -1.24543,0.033 -2.39647,0.39059 -3.46215,1.03336 -1.01656,0.61303 -1.90503,1.42265 -2.67846,2.31889 -0.8264,0.95446 -1.52867,2.01758 -2.11583,3.13499 -0.3673,0.69706 -0.68933,1.41484 -0.96091,2.15205 -0.26506,0.71517 -0.40997,1.47306 -0.71393,2.17404 -0.37764,0.8678 -1.0398,1.56361 -1.80931,2.09904 -0.49924,0.35048 -1.09025,0.65828 -1.71622,0.65828 -0.39447,0 -0.61433,-0.30795 -0.61433,-0.87817 0,-1.36183 0.87685,-4.43732 2.54524,-9.13717 0.43454,-0.0609 0.93506,-0.0971 1.3696,-0.15141 l 1.36183,-0.13198 c 0.96612,-0.088 3.29278,-1.71234 3.29278,-2.50384 0,-0.26396 -0.30795,-0.43842 -0.96612,-0.43842 0,0 -3.73245,0 -3.73245,0.003 h -0.0506 l 1.53773,-4.19936 c 0.26396,-0.65831 -0.30795,-0.96483 -1.1433,-0.96483 -1.27259,0 -3.03018,0.65831 -3.51259,1.88824 l -1.31916,3.38329 c -1.05406,0.0916 -1.90246,-0.0568 -2.92548,0.24453 -1.01912,0.29878 -1.87526,1.23124 -1.94381,2.31244 -0.011,0.16314 0.011,0.33104 0.0942,0.47332 0.2405,0.42163 0.78505,0.41001 1.20537,0.38413 0.11511,-0.007 0.34534,-0.022 0.34534,-0.022 l 1.06308,-0.0814 0.6221,-0.0293 0.28705,-0.0147 c 0,0 -0.29365,0.88074 -0.39319,1.18469 -1.0049,3.09617 -2.13133,6.48203 -2.13133,9.77738 0,2.19472 0.92212,3.07417 2.59175,3.07417 2.26717,0 4.27954,-1.04886 5.99837,-2.53358 0.49272,1.52868 1.6748,2.53358 3.72211,2.53358 2.02015,0 3.55787,-1.01007 4.69857,-2.28399 0.30905,1.49377 1.23124,2.28399 2.59307,2.28399 1.54162,0 2.90737,-0.54837 4.1127,-1.40582 0,0.87816 0.48113,1.40582 1.66838,1.40582 2.76637,0 6.2363,-7.29164 10.54043,-11.50783 -0.87817,3.46996 -1.75633,6.54413 -1.75633,8.65223 0,1.80157 0.61432,2.8556 2.37193,2.8556 1.95159,0 3.64711,-0.98551 5.10077,-2.39779 0.52381,1.43428 1.69424,2.36674 3.66654,2.36674 2.0641,0 3.64582,-0.92341 4.83179,-2.02015 0.30795,1.31659 1.18465,2.02015 2.45725,2.02015 2.09903,0 3.84243,-1.06437 5.29998,-2.56331 0.4811,1.56361 1.66963,2.59436 3.74411,2.59436 2.02014,0 3.55787,-1.01007 4.69985,-2.28399 0.30794,1.49377 1.22996,2.28399 2.5905,2.28399 1.40451,0 2.64092,-0.48759 3.73766,-1.26615 -0.0367,0.10082 -0.0686,0.2031 -0.10228,0.30245 -0.22107,0.6596 0.26395,1.01007 1.14197,1.01007 1.36055,0 3.29403,-0.70227 3.73377,-1.93219 0.41386,-1.33727 0.87813,-2.66031 1.41617,-3.95106 0.68544,-1.64507 0.9855,-2.91121 2.28783,-4.14114 0.98551,-0.68027 2.02792,-1.21313 3.16216,-1.52611 0.87813,-0.21996 1.75758,-2.01882 1.75758,-3.38197 0,-0.79022 -0.30904,-1.40582 -1.0993,-1.40582 m 7.81545,9.26522 c -0.59236,1.08897 -1.27003,2.17277 -2.2646,2.91122 -0.34791,0.25992 -0.74883,0.47853 -1.18208,0.49147 -0.94412,0.0293 -1.12776,-0.82127 -1.12776,-1.583 0,-1.76924 0.66605,-3.5967 1.43688,-5.16416 0.58455,-1.18857 1.33078,-2.40427 2.40552,-3.21128 0.75532,-0.56905 1.98653,-0.75528 2.42884,0.29108 0.19393,0.45526 0.16424,0.97646 0.0906,1.46793 -0.0425,0.28302 -0.0971,0.56516 -0.16424,0.84451 -0.32995,1.38383 -0.93895,2.69914 -1.62308,3.95234 m 10.62446,-21.19597 c -1.27388,0 -3.16212,0.6596 -3.55787,1.93352 l -3.3367,10.32186 c -0.54965,-1.40198 -2.1456,-1.90507 -3.53591,-1.67613 -3.36387,0.55871 -5.88454,3.54365 -7.39254,6.39148 -1.0993,2.07965 -1.89854,4.46321 -1.89854,6.83511 0,2.54784 1.18726,4.43732 3.9963,4.43732 2.06542,0 3.64582,-0.9234 4.83179,-2.02143 0.11108,0.47597 0.29878,0.86912 0.54965,1.17952 0.4462,0.54965 1.09802,0.84191 1.9102,0.84191 1.66318,0 3.17767,-0.65567 4.52527,-1.66058 0.77211,-0.57553 1.46789,-1.24286 2.10681,-1.96196 0.59878,-0.6699 1.24027,-1.39156 1.68386,-2.17661 0.14884,-0.26139 0.25479,-0.52509 0.30905,-0.77988 0.23023,-1.08248 -0.19137,-2.07961 -0.75532,-2.19861 -0.21593,-0.0451 -0.51343,0.0726 -0.70744,0.34791 -0.45521,0.6001 -1.19887,1.52094 -2.07572,2.48573 -0.17341,0.19284 -0.35304,0.38542 -0.53803,0.5781 -0.72944,0.72167 -1.46272,1.19371 -2.13137,1.19371 -0.26506,0 -0.39576,-0.21996 -0.39576,-0.66088 0,-2.15205 2.85432,-9.04666 7.64084,-22.3987 0.26395,-0.65959 -0.35048,-1.01139 -1.22864,-1.01139 m -179.09149,9.79292 c 1.52869,0.0803 2.80776,-1.49637 2.87631,-2.80131 0.0478,-0.89624 -0.47335,-1.67223 -1.8158,-1.74207 -1.49118,-0.0777 -2.77026,1.50022 -2.84139,2.84266 -0.0427,0.85749 0.43714,1.63088 1.78088,1.70072 m -22.02625,4.24203 c 0.61432,0 0.83418,0.44103 0.83418,1.05663 0,2.50253 -2.63446,4.17091 -4.83178,3.95234 0.43843,-1.84556 2.32794,-5.00897 3.9976,-5.00897 m 15.30237,-2.15205 c -0.52509,0 -1.27262,0.26396 -2.24001,0.92341 -0.83935,0.57033 -1.60628,1.1213 -2.32147,1.67484 0.2858,-0.81867 0.5975,-1.68389 0.95704,-2.63964 0.26252,-0.65831 -0.3078,-1.00878 -1.14328,-1.00878 -1.18596,0 -3.2061,0.70227 -3.55659,1.93219 -0.22374,0.78245 -0.40868,1.57655 -0.61432,2.36289 -0.18623,0.70611 -0.37505,1.41099 -0.56388,2.11582 -0.20174,0.74755 -0.3453,1.53905 -0.80831,2.17922 -0.52379,0.72943 -1.19889,1.40193 -1.81192,2.05765 -1.1769,1.26097 -2.53358,2.4909 -4.22781,2.972 -0.49404,0.14114 -1.00489,0.21336 -1.51834,0.21336 -1.4485,0 -2.06282,-1.01136 -2.02014,-2.76765 5.22754,0.0865 9.53036,-2.98755 9.53036,-7.55421 0,-2.10809 -1.18467,-3.82172 -3.60056,-3.82172 -2.53746,0 -4.81368,1.36704 -6.49627,3.18412 -1.00489,1.0864 -1.83778,2.32927 -2.47796,3.66137 -0.34274,0.7126 -0.63114,1.45106 -0.85747,2.20894 -0.27675,0.92084 -0.35824,1.94771 -0.84711,2.80648 -0.46171,0.81089 -1.39935,1.66835 -2.38485,1.66835 -0.35047,0 -0.4824,-0.30648 -0.4824,-0.7889 0,-2.02143 2.32795,-7.42358 2.32795,-10.40981 0,-1.18725 -0.39575,-2.02014 -1.49248,-2.02014 -3.55917,0 -6.89719,5.97248 -9.66356,9.92482 1.14198,-3.60186 2.28397,-6.4549 2.28397,-8.21376 0,-1.09674 -0.43972,-1.71106 -1.53774,-1.71106 -3.55658,0 -6.93857,6.01644 -9.66227,9.97006 0.87816,-2.06538 3.38199,-8.259 3.38199,-9.22512 0,-0.52637 -0.52767,-0.74494 -1.22863,-0.74494 -1.36315,0 -3.20869,0.70227 -3.69109,1.93219 -0.70227,1.97616 -3.95234,11.68369 -3.95234,14.05435 0,0.87813 0.394457,1.40582 1.66707,1.40582 2.76767,0 6.80924,-7.94995 10.10328,-11.55182 -1.44979,5.49139 -2.28397,8.52029 -2.28397,10.10201 0,0.87816 0.43843,1.44981 1.36185,1.44981 2.76767,0 6.58809,-7.94995 9.83816,-11.55182 -0.87815,3.46996 -1.71233,6.63208 -1.71233,8.74018 0,1.75758 0.61432,2.81164 2.32794,2.81164 2.15853,0 3.9782,-1.14201 5.49913,-2.73018 0.68933,1.66189 2.2413,2.77153 4.92749,2.77153 3.48286,0 6.02162,-1.81964 7.25414,-3.18796 -0.2354,0.74883 -0.46818,1.46917 -0.6971,2.13654 -0.21857,0.65828 0.26385,1.01007 1.14199,1.01007 1.36185,0 3.29405,-0.70227 3.73377,-1.93351 0.41515,-1.33599 0.87815,-2.65903 1.41617,-3.95234 0.68545,-1.63862 1.00231,-2.90216 2.2969,-4.12564 0.99197,-0.68933 2.04342,-1.22992 3.1867,-1.54418 0.87945,-0.21849 1.75631,-2.01886 1.75631,-3.38201 0,-0.7889 -0.30652,-1.4045 -1.09801,-1.4045 m 29.53259,5.41634 c -0.21337,0.74106 -0.55871,1.464 -0.84452,2.13654 -0.5083,1.20405 -1.09802,2.40167 -1.89084,3.44665 -0.62334,0.82255 -1.50668,1.73818 -2.61893,1.73818 -0.65958,0 -0.96739,-0.613 -0.96739,-1.5804 0,-1.32176 0.40739,-2.65902 0.88333,-3.87861 0.45654,-1.17431 1.03852,-2.32795 1.81837,-3.32251 0.64149,-0.81735 1.93608,-2.11972 3.07938,-1.46789 0.43065,0.24452 0.64794,0.75271 0.71132,1.24415 0.0726,0.56259 -0.011,1.12775 -0.17083,1.68389 m 25.32028,2.16888 c -0.21593,-0.0466 -0.51215,0.0722 -0.70744,0.34791 -0.50437,0.66737 -1.367,1.73045 -2.3745,2.81036 -0.022,0.022 -0.0414,0.0451 -0.0634,0.066 -0.79538,0.84066 -1.60239,1.40325 -2.33443,1.40325 -0.26506,0 -0.43971,-0.22106 -0.43971,-0.65959 0,-1.84553 2.32795,-7.33564 2.32795,-10.40981 0,-1.2752 -0.39575,-2.15205 -1.53773,-2.15205 -3.55791,0 -7.37831,5.88582 -10.10201,9.97007 0.87814,-2.06411 3.3833,-8.25773 3.3833,-9.22384 0,-0.52637 -0.52769,-0.74623 -1.23125,-0.74623 -0.88978,0 -1.93736,0.22876 -2.66936,0.75789 -0.70872,0.51343 -1.11096,1.34889 -1.41616,2.14299 -1.00751,2.61119 -1.39809,5.45645 -2.66552,7.95252 -0.27166,0.5406 -0.59104,1.06569 -1.02041,1.48989 -0.4268,0.42163 -1.96325,1.41099 -1.96325,0.1734 0,-1.88692 2.24517,-8.72203 2.55169,-9.68814 0.17597,-0.57161 -0.088,-0.92212 -0.65956,-0.92212 -0.26139,0 -0.79411,0.13307 -1.10063,0.22106 -0.022,-0.80184 -0.21996,-1.57523 -0.96351,-1.9917 -0.37504,-0.2108 -0.80312,-0.30648 -1.22732,-0.37247 -0.58071,-0.0891 -1.17046,-0.12684 -1.7589,-0.11255 -1.24547,0.033 -2.39651,0.39059 -3.46347,1.03207 -1.01525,0.613 -1.90375,1.4239 -2.67714,2.31889 -0.82771,0.95703 -1.52998,2.01883 -2.11714,3.13496 -0.39834,0.75917 -0.7139,1.55844 -1.12776,2.30983 -0.5031,0.91307 -1.13035,1.75891 -1.78217,2.56852 -0.57164,0.70744 -1.22088,1.3696 -1.99298,1.85847 -0.72555,0.46042 -1.55714,0.74366 -2.42365,0.74366 -1.40453,0 -2.10809,-0.92212 -2.10809,-2.24 0,-3.07289 2.76638,-8.16981 4.56795,-8.16981 0.30652,0 0.39446,0.30795 0.39446,0.70356 0,0.70227 -1.27391,2.10809 -1.27391,3.11816 0,0.48238 0.65829,0.79018 1.44979,0.79018 2.50384,0 3.90837,-2.15205 3.90837,-4.3041 0,-2.02014 -1.09672,-3.90966 -3.60056,-3.90966 -2.52064,0 -4.7115,1.59206 -6.26993,3.45053 -0.92601,1.10062 -1.69035,2.33443 -2.28139,3.64714 -0.29618,0.65699 -0.54966,1.33338 -0.75529,2.02271 -0.19918,0.67122 -0.31169,1.38514 -0.60526,2.02403 -0.27936,0.60915 -0.70356,1.17171 -1.23899,1.57912 -0.5406,0.41257 -1.16009,0.84194 -1.87529,0.80444 -0.26385,-0.0147 -0.33885,-0.23793 -0.31946,-0.58848 0.10994,-2.10549 3.31215,-9.50187 4.11788,-11.48322 0.29874,-0.64538 -0.30003,-0.98291 -1.17562,-1.03075 -1.31658,-0.0686 -3.01727,0.50177 -3.56434,1.70585 -3.07289,6.61265 -3.84887,10.4861 -3.9601,12.6343 -0.12028,2.28006 0.78116,2.72369 2.26975,2.80259 2.32278,0.12171 4.38559,-1.04629 6.13673,-2.67974 0.62337,1.70974 2.0861,2.85692 4.5576,2.85692 3.05478,0 5.71769,-1.73562 7.10799,-3.5773 0.23669,2.1236 1.4485,3.61865 3.94975,3.61865 2.02014,0 3.55791,-1.01003 4.69728,-2.28267 0.30795,1.49249 1.23253,2.28267 2.59308,2.28267 1.54293,0 2.90865,-0.54833 4.11401,-1.4045 0,0.87813 0.4811,1.4045 1.66707,1.4045 2.76765,0 6.23761,-7.29032 10.54043,-11.50651 -0.87817,3.46864 -1.7563,6.54414 -1.7563,8.65091 0,0.851 0.14077,1.53127 0.46947,2.01626 0.36859,0.5432 0.97642,0.83934 1.90371,0.83934 1.66967,0 3.18672,-0.65828 4.53821,-1.66963 1.44077,-1.07603 3.0509,-2.64997 3.87605,-4.27048 0.11365,-0.22253 0.19137,-0.44491 0.23646,-0.66088 0.2317,-1.0838 -0.1899,-2.07704 -0.75528,-2.19733 M 92.790211,190.37481 c -2.455984,2.97977 -4.89257,6.09533 -7.170075,9.12166 h 4.526561 c 0.786329,-3.11556 1.66707,-6.23244 2.643514,-9.12166 m 1.890809,12.28378 c -0.428086,2.48445 -0.690623,4.83307 -0.576814,6.95411 0.04916,1.22087 -2.796124,2.53097 -5.296078,2.53097 -0.611733,0 -1.054043,-0.40737 -0.866513,-1.62696 0.290975,-2.25811 0.783741,-4.83307 1.389007,-7.4947 l -6.538941,0.4048 c -1.870119,2.61892 -3.403975,4.96758 -4.561481,6.8196 -0.742359,1.17431 -3.663931,1.89726 -5.691829,1.89726 -0.472057,0 -0.624667,-0.1811 -0.556123,-0.54188 0.05044,-0.27275 0.214684,-0.63243 0.536722,-1.08508 5.518527,-7.63049 13.683152,-17.74801 20.581631,-25.20004 1.377371,-1.53512 3.630306,-2.21411 5.045181,-2.21411 0.848406,0 1.465312,0.22619 1.241568,0.90401 -1.457551,4.65201 -3.088407,10.20674 -4.146329,15.4899 h 4.222635 c 0.707434,0 1.002314,0.1811 0.950584,0.45136 -0.15651,0.81479 -2.975898,2.48574 -4.031235,2.57497 z" />
  </g>
</svg>
