<?xml version="1.0" encoding="utf-8"?>
<!-- Generator: Adobe Illustrator 19.2.1, SVG Export Plug-In . SVG Version: 6.00 Build 0)  -->
<svg version="1.1" id="layer" xmlns="http://www.w3.org/2000/svg" xmlns:xlink="http://www.w3.org/1999/xlink" x="0px" y="0px"
	 viewBox="0 0 652 652" style="enable-background:new 0 0 652 652;" xml:space="preserve">
<style type="text/css">
	.st0{fill:#CD163F;}
</style>
<g>
	<path d="M134.8,305c2.8-0.5,8.3-1,13.5-1c6.4,0,10.3,0.6,13.7,2.6c3.2,1.7,5.5,4.9,5.5,9.1c0,4.1-2.4,7.8-7.6,9.8v0.1
		c5.3,1.4,9.2,5.4,9.2,11.4c0,4.3-1.9,7.6-4.8,9.8c-3.4,2.7-9,4.2-18.2,4.2c-5.2,0-9-0.3-11.3-0.7V305 M145.2,322.7h3.4
		c5.6,0,8.5-2.3,8.5-5.7c0-3.5-2.7-5.4-7.4-5.4c-2.3,0-3.6,0.1-4.5,0.3V322.7 M145.2,343.2c1,0.2,2.3,0.2,4.1,0.2
		c4.7,0,8.9-1.9,8.9-6.7c0-4.7-4.2-6.5-9.4-6.5h-3.6V343.2z"/>
	<path d="M183.2,337.1c0.3,4.4,4.6,6.5,9.5,6.5c3.6,0,6.5-0.5,9.3-1.4l1.4,7.1c-3.4,1.4-7.6,2.1-12.2,2.1
		c-11.4,0-17.9-6.6-17.9-17.2c0-8.5,5.4-17.9,17-17.9c10.9,0,15,8.5,15,16.8c0,1.8-0.2,3.4-0.3,4.2L183.2,337.1 M195.5,330
		c0-2.5-1.1-6.8-5.8-6.8c-4.5,0-6.3,4.1-6.5,6.8H195.5z"/>
	<path d="M210,327.8c0-4.2-0.1-7.7-0.3-10.7h9.1l0.5,4.7h0.2c1.4-2.2,4.7-5.4,10.4-5.4c6.9,0,12,4.6,12,14.5v19.9h-10.4V332
		c0-4.3-1.5-7.3-5.3-7.3c-2.9,0-4.6,2-5.4,3.9c-0.3,0.7-0.3,1.6-0.3,2.6v19.4H210V327.8z"/>
	<path d="M240.7,357.2c2.7-0.2,4.9-0.8,6.2-2.2c1.5-1.6,2.1-4.3,2.1-10.9v-27h10.4v29.5c0,7.3-1.6,11.8-4.7,14.6
		c-3.1,2.8-8,4.1-12.9,4.1L240.7,357.2 M254,312.7c-3.5,0-5.8-2.5-5.8-5.6c0-3.2,2.3-5.6,5.9-5.6c3.6,0,5.8,2.4,5.8,5.6
		C260,310.2,257.7,312.7,254,312.7L254,312.7z"/>
	<path d="M294.1,342.5c0,3.2,0.1,6.3,0.6,8.1h-9.4l-0.6-3.4h-0.2c-2.2,2.7-5.6,4.1-9.6,4.1c-6.8,0-10.9-4.9-10.9-10.3
		c0-8.7,7.8-12.8,19.7-12.8v-0.4c0-1.8-1-4.3-6.1-4.3c-3.4,0-7.1,1.2-9.3,2.5l-1.9-6.7c2.3-1.3,6.9-3,13.1-3
		c11.2,0,14.7,6.6,14.7,14.5V342.5 M284,334.8c-5.5,0-9.8,1.3-9.8,5.3c0,2.7,1.8,4,4.1,4c2.5,0,4.7-1.7,5.4-3.9
		c0.1-0.5,0.2-1.2,0.2-1.8V334.8z"/>
	<path d="M299.7,327.8c0-4.2-0.1-7.7-0.3-10.7h8.9l0.4,4.6h0.2c1.4-2.2,4.5-5.4,10.2-5.4c4.4,0,7.8,2.3,9.2,5.8h0.1
		c1.3-1.8,2.7-3.2,4.4-4.1c1.9-1,3.9-1.7,6.4-1.7c6.5,0,11.3,4.5,11.3,14.6v19.8h-10.2v-18.2c0-4.9-1.6-7.7-4.9-7.7
		c-2.5,0-4.1,1.7-4.9,3.6c-0.2,0.8-0.3,1.8-0.3,2.6v19.7H320v-18.8c0-4.2-1.5-7.1-4.9-7.1c-2.7,0-4.3,2.1-4.9,3.7
		c-0.3,0.8-0.4,1.8-0.4,2.7v19.5h-10.2V327.8z"/>
	<path d="M361.2,312.7c-3.5,0-5.8-2.5-5.8-5.6c0-3.2,2.3-5.6,5.9-5.6c3.6,0,5.8,2.4,5.8,5.6C367.2,310.2,364.9,312.7,361.2,312.7
		L361.2,312.7 M356,317.1h10.4v33.6H356V317.1z"/>
	<path d="M372.1,327.8c0-4.2-0.1-7.7-0.3-10.7h9.1l0.5,4.7h0.2c1.4-2.2,4.7-5.4,10.4-5.4c6.9,0,12,4.6,12,14.5v19.9h-10.4V332
		c0-4.3-1.5-7.3-5.3-7.3c-2.9,0-4.6,2-5.4,3.9c-0.3,0.7-0.3,1.6-0.3,2.6v19.4h-10.4V327.8z"/>
	<path d="M465.8,332.9c-0.2-5.6-0.4-12.2-0.4-19h-0.1c-1.5,5.9-3.4,12.5-5.2,17.9l-5.6,18.1h-8.2l-4.9-17.9c-1.5-5.5-3-12-4.2-18.1
		h-0.1c-0.2,6.3-0.5,13.4-0.8,19.2l-0.9,17.6h-9.7l3-46.3h14l4.5,15.5c1.5,5.3,2.9,11.1,3.9,16.5h0.3c1.2-5.4,2.8-11.4,4.4-16.6
		l4.9-15.4h13.7l2.5,46.3h-10.2L465.8,332.9z"/>
	<path d="M497.5,351.4c-9.8,0-17.4-6.5-17.4-17.3c0-10.9,7.2-17.8,18-17.8c10.2,0,17.1,7.1,17.1,17.3
		C515.2,345.8,506.5,351.4,497.5,351.4L497.5,351.4 M497.7,343.9c4.1,0,6.7-4.1,6.7-10.1c0-4.9-1.9-10-6.7-10
		c-4.9,0-6.9,5.1-6.9,10.1C490.8,339.6,493.2,343.9,497.7,343.9L497.7,343.9z"/>
	<path d="M537.2,351.4c-9.8,0-17.4-6.5-17.4-17.3c0-10.9,7.1-17.8,18-17.8c10.2,0,17.1,7.1,17.1,17.3
		C554.9,345.8,546.2,351.4,537.2,351.4L537.2,351.4 M537.4,343.9c4.1,0,6.7-4.1,6.7-10.1c0-4.9-1.9-10-6.7-10
		c-4.9,0-6.9,5.1-6.9,10.1C530.5,339.6,532.9,343.9,537.4,343.9L537.4,343.9z"/>
	<path d="M558.7,328.1c0-4.9-0.1-8.2-0.3-11.1h8.9l0.4,6.2h0.3c1.7-4.9,5.8-7,9.1-7c1,0,1.4,0.1,2.2,0.2v9.8
		c-0.9-0.1-1.7-0.3-2.9-0.3c-3.8,0-6.5,2-7.1,5.3c-0.1,0.7-0.2,1.4-0.2,2.3v17h-10.4L558.7,328.1z"/>
	<path d="M591,337.1c0.3,4.4,4.6,6.5,9.5,6.5c3.6,0,6.5-0.5,9.3-1.4l1.4,7.1c-3.4,1.4-7.6,2.1-12.2,2.1c-11.4,0-17.9-6.6-17.9-17.2
		c0-8.5,5.4-17.9,17-17.9c10.9,0,15,8.5,15,16.8c0,1.8-0.2,3.4-0.3,4.2L591,337.1 M603.3,330c0-2.5-1.1-6.8-5.8-6.8
		c-4.5,0-6.3,4.1-6.5,6.8H603.3z"/>
	<path d="M620.3,314.6c3.2,0,5.7,2.6,5.7,5.8c0,3.3-2.5,5.8-5.7,5.8c-3.2,0-5.8-2.6-5.8-5.8C614.5,317.2,617.1,314.6,620.3,314.6
		L620.3,314.6 M620.3,315.5c-2.6,0-4.6,2.2-4.6,4.9c0,2.8,2.1,4.9,4.7,4.9c2.6,0,4.6-2.2,4.6-4.9C625,317.7,622.9,315.5,620.3,315.5
		L620.3,315.5 M619.2,323.8h-1v-6.5c0.5-0.1,1.1-0.2,1.8-0.2c1,0,1.6,0.2,2,0.5c0.4,0.3,0.6,0.7,0.6,1.3c0,0.9-0.6,1.4-1.3,1.6v0.1
		c0.6,0.1,1,0.6,1.1,1.6c0.2,1,0.3,1.4,0.4,1.6h-1.1c-0.2-0.2-0.3-0.8-0.4-1.7c-0.2-0.8-0.6-1.1-1.4-1.1h-0.7V323.8 M619.2,320.2
		h0.7c0.9,0,1.6-0.3,1.6-1.1c0-0.6-0.4-1.1-1.6-1.1c-0.3,0-0.6,0-0.7,0.1V320.2z"/>
	<path class="st0" d="M79,282.6L26,369h105.9L79,282.6z M95.6,360.9L95.6,360.9l-9.6,0h-14l-9.5,0c0,0-0.8,0-0.8-0.8
		c0-0.1,0.1-0.4,0.1-0.4l9.9-16.2l5.5,8.9l-2.6,4.1h0c-0.1,0.1-0.1,0.3-0.1,0.4c0,0.4,0.3,0.8,0.8,0.8h7.4c0.4,0,0.8-0.3,0.8-0.8
		c0-0.1,0-0.3-0.1-0.4l0,0l-13.3-21.7l-0.1-0.1c-0.1-0.1-0.3-0.2-0.5-0.2c-0.5,0-0.7,0.4-0.7,0.4L53,360.9l-10.9,0l26.8-43.5l0,0
		c0.1-0.2,0.4-0.4,0.7-0.4c0.5,0,0.7,0.4,0.7,0.4l26.1,42.4l0,0c0.1,0.1,0.1,0.2,0.1,0.4C96.4,360.5,96.1,360.9,95.6,360.9
		 M89.2,335c-0.1-0.2-0.4-0.4-0.7-0.4c-0.5,0-0.7,0.4-0.7,0.4l-1.5,2.5l-5.5-8.9l7-11.4c0,0,0.2-0.4,0.7-0.4c0.3,0,0.5,0.2,0.7,0.4
		l26.6,43.5h-10.7L89.2,335z"/>
</g>
</svg>
