<?xml version="1.0" encoding="utf-8"?>
<!-- Generator: Adobe Illustrator 19.2.1, SVG Export Plug-In . SVG Version: 6.00 Build 0)  -->
<svg version="1.1" id="layer" xmlns="http://www.w3.org/2000/svg" xmlns:xlink="http://www.w3.org/1999/xlink" x="0px" y="0px"
	 viewBox="0 0 652 652" style="enable-background:new 0 0 652 652;" xml:space="preserve">
<style type="text/css">
	.st0{fill:#FFFFFF;}
</style>
<rect x="31.1" y="227.4" class="st0" width="576.3" height="124.2"/>
<path d="M461,326.4l0-18.5c-0.5,0.9-1.3,1.5-2.2,2c-3,1.6-6.7,3.3-6.7,3.3c-3.9,1.9-7.3,3.7-10.2,5.4c-4.5,2.4-8.3,5.3-10.3,8.9
	c0,0-0.2,0.3-0.3,0.5c-1.9,4.4-1.6,8.6,1.8,12.3c0,0,2.3,2.6,6.4,4c1.8,0.5,3.9,0.8,6.3,0.5C446,344.8,460.8,343.2,461,326.4"/>
<path d="M450.9,351.5h12.3c-1.2-4.3-2-7.9-2.2-9.1C459,347.2,455,349.9,450.9,351.5"/>
<polygon points="524.2,351.5 554.1,351.5 538.9,301.8 "/>
<path d="M371.9,285.3c-8.3,0.6-14.6,3.7-14.6,17.3l0,31.3c0,5.6,0,11.9,2.8,15.8l1.3,1.8h24.2v-47.1
	C385.6,292.9,383.3,285.4,371.9,285.3"/>
<path d="M25.4,221.7v129.9h165c0,0-0.5-0.4-0.6-0.5c-5.9-4.8-52.6-40.8-158.7-59.1c0-6.6,0-64.6,0-64.6h222.5
	c-16.9,56.5-47,56.6-63.2,124.2h63.3l0-22.3l3,3.8c5,6.4,11.9,15.8,29.4,15.8c12.9,0,21.4-7.7,21.4-18.5c0-11.7-11.1-18.5-22.9-24.3
	c-13.1-6.4-26.6-14-26.6-29.8c0-9.4,4.1-16.2,10.3-20.9c3.4-2.6,7.5-4.7,12.3-6.2c6-1.8,13-2.7,20.9-2.6c2.4,0.1,5.3,0.5,8.3,1
	c4.7,0.9,9,2.5,12.9,4.5v14.2c-9.2-13.2-25.5-12.6-25.5-12.6c-5.8,0-19.6,2.7-19.6,16.7c0,10.3,10.5,16.8,21.7,22.2
	c13,6.2,27.7,14.2,27.7,31c0,13.9-7.8,23.3-21.3,28.2h31.4l1.3-1.8c2.8-3.9,2.8-10.2,2.8-15.8v-74.1c0,0,0.4-13-7.3-16.6l23.5-3.4
	v45.3c3.5-3.9,10.1-8,21.6-8c14.9,0,22.8,7.6,22.8,21.9v34.8c0,5.6,0,12,2.5,15.9l1.1,1.7h20.3c-0.4-0.1-0.7-0.3-1.1-0.4
	c-6.2-2.9-10.5-9.2-10.5-16.5c0-2,0.3-4,0.9-5.8c0.5-1.4,1.1-2.7,1.8-3.9c5.2-9.4,22.5-15,32.6-19.2c2.3-0.9,4.7-1.9,6.5-2.7
	c2.9-1.2,4.9-3.7,5.1-7v-4.8c-0.3-9.4-9.7-8.6-13.2-8.7c-6,0.1-9.1,2-11.1,4.5c-3.1,4.3-3.3,9.9-9.7,10.4c-0.1,0-0.2,0-0.2,0
	c-3.9,0-7-3.1-7-7c0-1.2,0.3-2.4,0.9-3.4c4.3-7.2,18.5-9.8,30.2-9.8c13,0,25.6,2.6,25.6,13v35.4c0,9.1-0.5,18.8,4.3,26h28.4
	L492,293.7c-2.9-9.7-7.9-15-7.9-15s16.4,0,16.9,0c6.7,0.6,7.6,5.3,7.6,5.3l13.2,54.7l11.5-40c4.3-14.5-2.1-20-2.1-20h13.5
	c7.1,0.4,8,5.4,8,5.4l13.9,54.7l11.5-40c4.3-14.5-2.1-20-2.1-20h19.6c-7.3,5.3-10.1,16.7-10.1,16.7L569,351.5h38.4V221.7L25.4,221.7
	z"/>
<path d="M612.7,228.6c0-3.5,2.8-6.3,6.3-6.3c3.5,0,6.3,2.8,6.3,6.3c0,3.5-2.8,6.3-6.3,6.3C615.6,234.9,612.7,232.1,612.7,228.6
	 M624.4,228.6c0-3.1-2.2-5.5-5.3-5.5c-3.1,0-5.3,2.4-5.3,5.5c0,3.1,2.3,5.5,5.3,5.5C622.1,234.1,624.4,231.7,624.4,228.6
	 M622.2,232.1h-1l-2-3.3h-1.6v3.3h-0.9v-7.1h3.1c1.9,0,2.5,0.7,2.5,1.9c0,1.4-1,1.9-2.2,1.9L622.2,232.1z M618.9,228.2
	c1,0,2.5,0.2,2.5-1.3c0-1.1-0.9-1.2-1.8-1.2h-2v2.5H618.9z"/>
<polygon points="338.3,377.1 370.6,377.1 370.6,381.2 343.1,381.2 343.1,399.6 367.6,399.6 367.6,403.8 343.1,403.8 343.1,428.1 
	338.3,428.1 "/>
<polygon points="376.6,377.1 381.5,377.1 381.5,424 410.1,424 410.1,428.1 376.6,428.1 "/>
<path d="M436.4,376c16,0,24,12.7,24,26.6c0,13.9-8,26.6-24,26.6c-16.1,0-24.1-12.7-24.1-26.6C412.3,388.6,420.3,376,436.4,376
	 M436.4,425c13.4,0,19.2-11.3,19.2-22.4c0-11.2-5.7-22.4-19.2-22.4c-13.5,0-19.2,11.3-19.2,22.4C417.2,413.7,422.9,425,436.4,425"/>
<path d="M489.4,376c16,0,24,12.7,24,26.6c0,13.9-8,26.6-24,26.6c-16.1,0-24.1-12.7-24.1-26.6C465.3,388.6,473.3,376,489.4,376
	 M489.4,425c13.4,0,19.2-11.3,19.2-22.4c0-11.2-5.7-22.4-19.2-22.4c-13.5,0-19.2,11.3-19.2,22.4C470.1,413.7,475.8,425,489.4,425"/>
<path d="M521,377.1h23.4c8.4,0,15.5,4.1,15.5,13.3c0,6.4-3.4,11.7-9.9,13v0.1c6.7,0.9,8.6,5.4,8.9,11.5c0.2,3.5,0.2,10.5,2.4,13.1
	h-5.4c-1.2-2-1.2-5.8-1.4-7.9c-0.4-7.1-1-15.1-10.2-14.7h-18.4v22.7H521V377.1z M525.8,401.3H544c5.9,0,11-3.7,11-9.9
	s-3.7-10.2-11-10.2h-18.2V401.3z"/>
<path d="M570.9,411.3c-0.2,10.5,7.4,13.7,16.7,13.7c5.4,0,13.5-2.9,13.5-10.4c0-5.8-5.8-8.1-10.5-9.2l-11.4-2.8
	c-6-1.5-11.5-4.4-11.5-12.3c0-5,3.2-14.4,17.6-14.4c10.1,0,18.9,5.4,18.9,15.9h-4.9c-0.3-7.8-6.7-11.7-13.9-11.7
	c-6.6,0-12.8,2.6-12.8,10.1c0,4.8,3.6,6.8,7.7,7.8l12.4,3.1c7.2,1.9,13.2,5.1,13.2,13.4c0,3.5-1.4,14.6-19.5,14.6
	c-12.1,0-20.9-5.4-20.4-17.9H570.9z"/>
</svg>
